<svg width="109" height="24" viewBox="0 0 109 24" fill="none" xmlns="http://www.w3.org/2000/svg">
<g clip-path="url(#clip0_130_22)">
<rect y="4" width="16" height="16" rx="8" fill="#0FC281"/>
<rect x="2.07422" y="6.07227" width="11.8534" height="11.8534" rx="5.9267" fill="#2EE5A3"/>
<rect x="4.20898" y="8.20898" width="7.60247" height="7.60247" rx="3.80123" fill="#5CFFC4"/>
<rect x="2.07422" y="6.07227" width="11.8534" height="11.8534" rx="5.9267" fill="#2EE5A3"/>
<rect x="4.20898" y="8.20898" width="7.60247" height="7.60247" rx="3.80123" fill="#5CFFC4"/>
</g>
<path d="M26.34 19.24C25.5667 19.24 24.88 19.16 24.28 19C23.68 18.8267 23.16 18.5933 22.72 18.3C22.28 17.9933 21.92 17.66 21.64 17.3C21.36 16.9267 21.1533 16.5333 21.02 16.12L22.64 15.56C22.84 16.1467 23.24 16.66 23.84 17.1C24.4533 17.5267 25.2 17.74 26.08 17.74C27.16 17.74 28.0067 17.5267 28.62 17.1C29.2333 16.6733 29.54 16.1067 29.54 15.4C29.54 14.7467 29.2667 14.22 28.72 13.82C28.1733 13.4067 27.4533 13.0867 26.56 12.86L25.02 12.46C24.3933 12.3 23.8133 12.0667 23.28 11.76C22.76 11.44 22.34 11.04 22.02 10.56C21.7133 10.0667 21.56 9.48 21.56 8.8C21.56 7.53333 21.9667 6.54667 22.78 5.84C23.6067 5.12 24.7933 4.76 26.34 4.76C27.26 4.76 28.0533 4.91333 28.72 5.22C29.3867 5.51333 29.9267 5.89333 30.34 6.36C30.7667 6.81333 31.0667 7.30667 31.24 7.84L29.64 8.4C29.3867 7.73333 28.96 7.21333 28.36 6.84C27.76 6.45333 27.0333 6.26 26.18 6.26C25.2867 6.26 24.5733 6.48 24.04 6.92C23.52 7.34667 23.26 7.93333 23.26 8.68C23.26 9.32 23.4667 9.81333 23.88 10.16C24.2933 10.4933 24.8333 10.74 25.5 10.9L27.04 11.28C28.4 11.6 29.44 12.1333 30.16 12.88C30.8933 13.6133 31.26 14.4067 31.26 15.26C31.26 15.9933 31.0733 16.6667 30.7 17.28C30.3267 17.88 29.7733 18.36 29.04 18.72C28.32 19.0667 27.42 19.24 26.34 19.24ZM37.4452 19.24C36.4718 19.24 35.7185 18.9867 35.1852 18.48C34.6518 17.9733 34.3852 17.26 34.3852 16.34V5.88H35.9852V16.18C35.9852 16.6867 36.1185 17.08 36.3852 17.36C36.6652 17.6267 37.0518 17.76 37.5452 17.76C37.7052 17.76 37.8585 17.74 38.0052 17.7C38.1652 17.6467 38.3718 17.5267 38.6252 17.34L39.2452 18.64C38.8985 18.8667 38.5852 19.02 38.3052 19.1C38.0252 19.1933 37.7385 19.24 37.4452 19.24ZM32.6452 10.42V9H38.9852V10.42H32.6452ZM47.3452 19L47.2652 17.36V13.72C47.2652 12.9333 47.1785 12.2867 47.0052 11.78C46.8318 11.26 46.5585 10.8667 46.1852 10.6C45.8118 10.3333 45.3252 10.2 44.7252 10.2C44.1785 10.2 43.7052 10.3133 43.3052 10.54C42.9185 10.7533 42.5985 11.1 42.3452 11.58L40.9052 11.02C41.1585 10.5533 41.4652 10.1533 41.8252 9.82C42.1852 9.47333 42.6052 9.21333 43.0852 9.04C43.5652 8.85333 44.1118 8.76 44.7252 8.76C45.6585 8.76 46.4252 8.94667 47.0252 9.32C47.6385 9.68 48.0985 10.22 48.4052 10.94C48.7118 11.6467 48.8585 12.5267 48.8452 13.58L48.8252 19H47.3452ZM44.3452 19.24C43.1718 19.24 42.2518 18.9733 41.5852 18.44C40.9318 17.8933 40.6052 17.14 40.6052 16.18C40.6052 15.1667 40.9385 14.3933 41.6052 13.86C42.2852 13.3133 43.2318 13.04 44.4452 13.04H47.3052V14.38H44.8052C43.8718 14.38 43.2052 14.5333 42.8052 14.84C42.4185 15.1467 42.2252 15.5867 42.2252 16.16C42.2252 16.68 42.4185 17.0933 42.8052 17.4C43.1918 17.6933 43.7318 17.84 44.4252 17.84C44.9985 17.84 45.4985 17.72 45.9252 17.48C46.3518 17.2267 46.6785 16.8733 46.9052 16.42C47.1452 15.9533 47.2652 15.4067 47.2652 14.78H47.9452C47.9452 16.14 47.6385 17.2267 47.0252 18.04C46.4118 18.84 45.5185 19.24 44.3452 19.24ZM52.2605 13.58C52.2605 12.5 52.4671 11.6267 52.8805 10.96C53.2938 10.28 53.8205 9.78 54.4605 9.46C55.1138 9.12667 55.8005 8.96 56.5205 8.96V10.46C55.9338 10.46 55.3671 10.56 54.8205 10.76C54.2871 10.9467 53.8471 11.26 53.5005 11.7C53.1538 12.14 52.9805 12.74 52.9805 13.5L52.2605 13.58ZM51.3805 19V9H52.9805V19H51.3805ZM61.8983 19.24C60.9249 19.24 60.1716 18.9867 59.6383 18.48C59.1049 17.9733 58.8383 17.26 58.8383 16.34V5.88H60.4383V16.18C60.4383 16.6867 60.5716 17.08 60.8383 17.36C61.1183 17.6267 61.5049 17.76 61.9983 17.76C62.1583 17.76 62.3116 17.74 62.4583 17.7C62.6183 17.6467 62.8249 17.5267 63.0783 17.34L63.6983 18.64C63.3516 18.8667 63.0383 19.02 62.7583 19.1C62.4783 19.1933 62.1916 19.24 61.8983 19.24ZM57.0983 10.42V9H63.4383V10.42H57.0983ZM66.1569 19V5H70.7169C71.6235 5 72.4235 5.18667 73.1169 5.56C73.8235 5.93333 74.3702 6.45333 74.7569 7.12C75.1569 7.78667 75.3569 8.56 75.3569 9.44C75.3569 10.2933 75.1769 11.0533 74.8169 11.72C74.4569 12.3867 73.9635 12.9133 73.3369 13.3C72.7102 13.6733 71.9835 13.86 71.1569 13.86H67.8569V19H66.1569ZM67.8569 12.32H71.1569C71.8902 12.32 72.4902 12.0533 72.9569 11.52C73.4369 10.9733 73.6769 10.28 73.6769 9.44C73.6769 8.57333 73.3969 7.87333 72.8369 7.34C72.2769 6.80667 71.5635 6.54 70.6969 6.54H67.8569V12.32ZM83.2436 19L83.1636 17.36V13.72C83.1636 12.9333 83.0769 12.2867 82.9036 11.78C82.7303 11.26 82.4569 10.8667 82.0836 10.6C81.7103 10.3333 81.2236 10.2 80.6236 10.2C80.0769 10.2 79.6036 10.3133 79.2036 10.54C78.8169 10.7533 78.4969 11.1 78.2436 11.58L76.8036 11.02C77.0569 10.5533 77.3636 10.1533 77.7236 9.82C78.0836 9.47333 78.5036 9.21333 78.9836 9.04C79.4636 8.85333 80.0103 8.76 80.6236 8.76C81.5569 8.76 82.3236 8.94667 82.9236 9.32C83.5369 9.68 83.9969 10.22 84.3036 10.94C84.6103 11.6467 84.7569 12.5267 84.7436 13.58L84.7236 19H83.2436ZM80.2436 19.24C79.0703 19.24 78.1503 18.9733 77.4836 18.44C76.8303 17.8933 76.5036 17.14 76.5036 16.18C76.5036 15.1667 76.8369 14.3933 77.5036 13.86C78.1836 13.3133 79.1303 13.04 80.3436 13.04H83.2036V14.38H80.7036C79.7703 14.38 79.1036 14.5333 78.7036 14.84C78.3169 15.1467 78.1236 15.5867 78.1236 16.16C78.1236 16.68 78.3169 17.0933 78.7036 17.4C79.0903 17.6933 79.6303 17.84 80.3236 17.84C80.8969 17.84 81.3969 17.72 81.8236 17.48C82.2503 17.2267 82.5769 16.8733 82.8036 16.42C83.0436 15.9533 83.1636 15.4067 83.1636 14.78H83.8436C83.8436 16.14 83.5369 17.2267 82.9236 18.04C82.3103 18.84 81.4169 19.24 80.2436 19.24ZM91.2789 23.24C90.6389 23.24 90.0522 23.1733 89.5189 23.04C88.9989 22.92 88.5522 22.78 88.1789 22.62C87.8189 22.4733 87.5589 22.3467 87.3989 22.24L87.9989 20.94C88.1722 21.0333 88.4189 21.1467 88.7389 21.28C89.0589 21.4267 89.4322 21.5467 89.8589 21.64C90.2989 21.7467 90.7656 21.8 91.2589 21.8C91.8989 21.8 92.4722 21.6667 92.9789 21.4C93.4989 21.1467 93.8989 20.74 94.1789 20.18C94.4722 19.6333 94.6189 18.9267 94.6189 18.06V9H96.2189V18.04C96.2189 19.1867 96.0056 20.1467 95.5789 20.92C95.1522 21.6933 94.5656 22.2733 93.8189 22.66C93.0722 23.0467 92.2256 23.24 91.2789 23.24ZM91.2189 18.92C90.3256 18.92 89.5389 18.7067 88.8589 18.28C88.1789 17.8533 87.6456 17.26 87.2589 16.5C86.8856 15.7267 86.6989 14.8467 86.6989 13.86C86.6989 12.8467 86.8856 11.96 87.2589 11.2C87.6456 10.4267 88.1789 9.82667 88.8589 9.4C89.5389 8.97333 90.3256 8.76 91.2189 8.76C92.0589 8.76 92.7922 8.97333 93.4189 9.4C94.0456 9.82667 94.5322 10.4267 94.8789 11.2C95.2389 11.96 95.4189 12.8467 95.4189 13.86C95.4189 14.86 95.2389 15.74 94.8789 16.5C94.5322 17.26 94.0456 17.8533 93.4189 18.28C92.7922 18.7067 92.0589 18.92 91.2189 18.92ZM91.5989 17.54C92.1856 17.54 92.7056 17.38 93.1589 17.06C93.6122 16.74 93.9656 16.3067 94.2189 15.76C94.4722 15.2 94.5989 14.5533 94.5989 13.82C94.5989 13.1133 94.4656 12.4867 94.1989 11.94C93.9456 11.38 93.5922 10.9467 93.1389 10.64C92.6989 10.32 92.1789 10.16 91.5789 10.16C90.9522 10.16 90.3922 10.32 89.8989 10.64C89.4189 10.9467 89.0389 11.38 88.7589 11.94C88.4922 12.4867 88.3589 13.1133 88.3589 13.82C88.3589 14.5533 88.4989 15.2 88.7789 15.76C89.0589 16.3067 89.4389 16.74 89.9189 17.06C90.4122 17.38 90.9722 17.54 91.5989 17.54ZM103.397 19.24C102.424 19.24 101.564 19.02 100.817 18.58C100.071 18.1267 99.4839 17.5067 99.0572 16.72C98.6439 15.9333 98.4372 15.0267 98.4372 14C98.4372 12.9733 98.6439 12.0667 99.0572 11.28C99.4839 10.4933 100.064 9.88 100.797 9.44C101.544 8.98667 102.397 8.76 103.357 8.76C104.291 8.76 105.097 8.99333 105.777 9.46C106.457 9.91333 106.984 10.5533 107.357 11.38C107.731 12.2067 107.917 13.18 107.917 14.3H99.6572L100.057 13.96C100.057 14.76 100.197 15.4467 100.477 16.02C100.771 16.5933 101.177 17.0333 101.697 17.34C102.217 17.6333 102.811 17.78 103.477 17.78C104.184 17.78 104.777 17.6133 105.257 17.28C105.751 16.9467 106.131 16.5067 106.397 15.96L107.777 16.66C107.524 17.18 107.184 17.6333 106.757 18.02C106.344 18.4067 105.851 18.7067 105.277 18.92C104.717 19.1333 104.091 19.24 103.397 19.24ZM100.157 13.28L99.7372 12.96H106.637L106.217 13.3C106.217 12.66 106.091 12.1067 105.837 11.64C105.584 11.1733 105.244 10.8133 104.817 10.56C104.391 10.3067 103.897 10.18 103.337 10.18C102.791 10.18 102.271 10.3067 101.777 10.56C101.297 10.8133 100.904 11.1733 100.597 11.64C100.304 12.0933 100.157 12.64 100.157 13.28Z" fill="#666666"/>
<defs>
<clipPath id="clip0_130_22">
<rect y="4" width="16" height="16" rx="8" fill="white"/>
</clipPath>
</defs>
</svg>
